<?xml version="1.0"?>
<!DOCTYPE svg PUBLIC "-//W3C//DTD SVG 1.0//EN" "http://www.w3.org/TR/2001/REC-SVG-20010904/DTD/svg10.dtd">
<!-- Generated by graphviz version 2.34.0 (20131007.1334)
 -->
<!-- Title: Genealogy Pages: 1 -->
<svg xmlns="http://www.w3.org/2000/svg" xmlns:svg="http://www.w3.org/2000/svg" width="339pt" height="896pt" viewBox="0.00 0.00 339.00 896.00" preserveAspectRatio="xMidYMid meet" zoomAndPan="magnify" version="1.1" contentScriptType="application/ecmascript" contentStyleType="text/css"><defs><linearGradient id="white" x1="0%" y1="0%" x2="0%" y2="0%"><stop offset="0%" style="stop-color:rgb(255,255,255);stop-opacity:1"/></linearGradient><linearGradient id="black" x1="0%" y1="0%" x2="0%" y2="0%"><stop offset="0%" style="stop-color:rgb(0,0,0);stop-opacity:1"/></linearGradient><linearGradient id="aquamarine" x1="0%" y1="0%" x2="100%" y2="100%"><stop offset="0%" style="stop-color:rgb(255,255,255);stop-opacity:1"/><stop offset="100%" style="stop-color:rgb(127,255,212);stop-opacity:1"/></linearGradient><linearGradient id="azure" x1="0%" y1="0%" x2="100%" y2="100%"><stop offset="0%" style="stop-color:rgb(255,255,255);stop-opacity:1"/><stop offset="100%" style="stop-color:rgb(240,255,255);stop-opacity:1"/></linearGradient><linearGradient id="blue" x1="0%" y1="0%" x2="100%" y2="100%"><stop offset="0%" style="stop-color:rgb(255,255,255);stop-opacity:1"/><stop offset="100%" style="stop-color:rgb(0,0,255);stop-opacity:1"/></linearGradient><linearGradient id="blueviolet" x1="0%" y1="0%" x2="100%" y2="100%"><stop offset="0%" style="stop-color:rgb(255,255,255);stop-opacity:1"/><stop offset="100%" style="stop-color:rgb(138,43,226);stop-opacity:1"/></linearGradient><linearGradient id="brown" x1="0%" y1="0%" x2="100%" y2="100%"><stop offset="0%" style="stop-color:rgb(255,255,255);stop-opacity:1"/><stop offset="100%" style="stop-color:rgb(165,42,42);stop-opacity:1"/></linearGradient><linearGradient id="cadetblue" x1="0%" y1="0%" x2="100%" y2="100%"><stop offset="0%" style="stop-color:rgb(255,255,255);stop-opacity:1"/><stop offset="100%" style="stop-color:rgb(95,158,160);stop-opacity:1"/></linearGradient><linearGradient id="chocolate" x1="0%" y1="0%" x2="100%" y2="100%"><stop offset="0%" style="stop-color:rgb(255,255,255);stop-opacity:1"/><stop offset="100%" style="stop-color:rgb(210,105,30);stop-opacity:1"/></linearGradient><linearGradient id="cornflowerblue" x1="0%" y1="0%" x2="100%" y2="100%"><stop offset="0%" style="stop-color:rgb(255,255,255);stop-opacity:1"/><stop offset="100%" style="stop-color:rgb(100,149,237);stop-opacity:1"/></linearGradient><linearGradient id="crimson" x1="0%" y1="0%" x2="100%" y2="100%"><stop offset="0%" style="stop-color:rgb(255,255,255);stop-opacity:1"/><stop offset="100%" style="stop-color:rgb(220,20,60);stop-opacity:1"/></linearGradient><linearGradient id="cyan" x1="0%" y1="0%" x2="100%" y2="100%"><stop offset="0%" style="stop-color:rgb(255,255,255);stop-opacity:1"/><stop offset="100%" style="stop-color:rgb(0,255,255);stop-opacity:1"/></linearGradient><linearGradient id="darkgreen" x1="0%" y1="0%" x2="100%" y2="100%"><stop offset="0%" style="stop-color:rgb(255,255,255);stop-opacity:1"/><stop offset="100%" style="stop-color:rgb(0,100,0);stop-opacity:1"/></linearGradient><linearGradient id="darkorange" x1="0%" y1="0%" x2="100%" y2="100%"><stop offset="0%" style="stop-color:rgb(255,255,255);stop-opacity:1"/><stop offset="100%" style="stop-color:rgb(255,140,0);stop-opacity:1"/></linearGradient><linearGradient id="gold" x1="0%" y1="0%" x2="100%" y2="100%"><stop offset="0%" style="stop-color:rgb(255,255,255);stop-opacity:1"/><stop offset="100%" style="stop-color:rgb(255,215,0);stop-opacity:1"/></linearGradient><linearGradient id="gray" x1="0%" y1="0%" x2="100%" y2="100%"><stop offset="0%" style="stop-color:rgb(255,255,255);stop-opacity:1"/><stop offset="100%" style="stop-color:rgb(192,192,192);stop-opacity:1"/></linearGradient><linearGradient id="greenyellow" x1="0%" y1="0%" x2="100%" y2="100%"><stop offset="0%" style="stop-color:rgb(255,255,255);stop-opacity:1"/><stop offset="100%" style="stop-color:rgb(173,255,47);stop-opacity:1"/></linearGradient><linearGradient id="green" x1="0%" y1="0%" x2="100%" y2="100%"><stop offset="0%" style="stop-color:rgb(255,255,255);stop-opacity:1"/><stop offset="100%" style="stop-color:rgb(0,255,0);stop-opacity:1"/></linearGradient><linearGradient id="grey" x1="0%" y1="0%" x2="100%" y2="100%"><stop offset="0%" style="stop-color:rgb(255,255,255);stop-opacity:1"/><stop offset="100%" style="stop-color:rgb(192,192,192);stop-opacity:1"/></linearGradient><linearGradient id="hotpink" x1="0%" y1="0%" x2="100%" y2="100%"><stop offset="0%" style="stop-color:rgb(255,255,255);stop-opacity:1"/><stop offset="100%" style="stop-color:rgb(255,105,180);stop-opacity:1"/></linearGradient><linearGradient id="indianred" x1="0%" y1="0%" x2="100%" y2="100%"><stop offset="0%" style="stop-color:rgb(255,255,255);stop-opacity:1"/><stop offset="100%" style="stop-color:rgb(205,92,92);stop-opacity:1"/></linearGradient><linearGradient id="indigo" x1="0%" y1="0%" x2="100%" y2="100%"><stop offset="0%" style="stop-color:rgb(255,255,255);stop-opacity:1"/><stop offset="100%" style="stop-color:rgb(75,0,130);stop-opacity:1"/></linearGradient><linearGradient id="lavender" x1="0%" y1="0%" x2="100%" y2="100%"><stop offset="0%" style="stop-color:rgb(255,255,255);stop-opacity:1"/><stop offset="100%" style="stop-color:rgb(230,230,250);stop-opacity:1"/></linearGradient><linearGradient id="lightblue" x1="0%" y1="0%" x2="100%" y2="100%"><stop offset="0%" style="stop-color:rgb(255,255,255);stop-opacity:1"/><stop offset="100%" style="stop-color:rgb(173,216,230);stop-opacity:1"/></linearGradient><linearGradient id="lightgray" x1="0%" y1="0%" x2="100%" y2="100%"><stop offset="0%" style="stop-color:rgb(255,255,255);stop-opacity:1"/><stop offset="100%" style="stop-color:rgb(211,211,211);stop-opacity:1"/></linearGradient><linearGradient id="lightgrey" x1="0%" y1="0%" x2="100%" y2="100%"><stop offset="0%" style="stop-color:rgb(255,255,255);stop-opacity:1"/><stop offset="100%" style="stop-color:rgb(211,211,211);stop-opacity:1"/></linearGradient><linearGradient id="magenta" x1="0%" y1="0%" x2="100%" y2="100%"><stop offset="0%" style="stop-color:rgb(255,255,255);stop-opacity:1"/><stop offset="100%" style="stop-color:rgb(255,0,255);stop-opacity:1"/></linearGradient><linearGradient id="maroon" x1="0%" y1="0%" x2="100%" y2="100%"><stop offset="0%" style="stop-color:rgb(255,255,255);stop-opacity:1"/><stop offset="100%" style="stop-color:rgb(176,48,96);stop-opacity:1"/></linearGradient><linearGradient id="mediumblue" x1="0%" y1="0%" x2="100%" y2="100%"><stop offset="0%" style="stop-color:rgb(255,255,255);stop-opacity:1"/><stop offset="100%" style="stop-color:rgb(0,0,205);stop-opacity:1"/></linearGradient><linearGradient id="mediumpurple" x1="0%" y1="0%" x2="100%" y2="100%"><stop offset="0%" style="stop-color:rgb(255,255,255);stop-opacity:1"/><stop offset="100%" style="stop-color:rgb(147,112,219);stop-opacity:1"/></linearGradient><linearGradient id="orange" x1="0%" y1="0%" x2="100%" y2="100%"><stop offset="0%" style="stop-color:rgb(255,255,255);stop-opacity:1"/><stop offset="100%" style="stop-color:rgb(255,165,0);stop-opacity:1"/></linearGradient><linearGradient id="pink" x1="0%" y1="0%" x2="100%" y2="100%"><stop offset="0%" style="stop-color:rgb(255,255,255);stop-opacity:1"/><stop offset="100%" style="stop-color:rgb(255,192,203);stop-opacity:1"/></linearGradient><linearGradient id="purple" x1="0%" y1="0%" x2="100%" y2="100%"><stop offset="0%" style="stop-color:rgb(255,255,255);stop-opacity:1"/><stop offset="100%" style="stop-color:rgb(160,32,240);stop-opacity:1"/></linearGradient><linearGradient id="red" x1="0%" y1="0%" x2="100%" y2="100%"><stop offset="0%" style="stop-color:rgb(255,255,255);stop-opacity:1"/><stop offset="100%" style="stop-color:rgb(255,0,0);stop-opacity:1"/></linearGradient><linearGradient id="steelblue" x1="0%" y1="0%" x2="100%" y2="100%"><stop offset="0%" style="stop-color:rgb(255,255,255);stop-opacity:1"/><stop offset="100%" style="stop-color:rgb(70,130,180);stop-opacity:1"/></linearGradient><linearGradient id="violet" x1="0%" y1="0%" x2="100%" y2="100%"><stop offset="0%" style="stop-color:rgb(255,255,255);stop-opacity:1"/><stop offset="100%" style="stop-color:rgb(238,130,238);stop-opacity:1"/></linearGradient><linearGradient id="yellow" x1="0%" y1="0%" x2="100%" y2="100%"><stop offset="0%" style="stop-color:rgb(255,255,255);stop-opacity:1"/><stop offset="100%" style="stop-color:rgb(255,255,0);stop-opacity:1"/></linearGradient><linearGradient id="none" x1="0%" y1="0%" x2="100%" y2="100%"><stop offset="0%" style="stop-color:rgb(255,255,255);stop-opacity:1"/><stop offset="100%" style="stop-color:rgb(255,255,255);stop-opacity:1"/></linearGradient></defs>
<g id="graph0" class="graph" transform="scale(1 1) rotate(0) translate(4 892)"><polygon fill="white" stroke="white" points="-4,4 -4,-892 335,-892 335,4 -4,4"/><title>Genealogy</title><g id="node1" class="node"><polygon fill="lightgrey" stroke="black" points="241.09,-888 32.9101,-888 32.9101,-852 241.09,-852 241.09,-888" style="fill: black; stroke: none; fill-opacity:0.3" transform="translate(3,3)"/><polygon fill="lightgrey" stroke="black" points="241.09,-888 32.9101,-888 32.9101,-852 241.09,-852 241.09,-888" style="fill:url(#lightgrey);stroke:black;"/><text text-anchor="middle" x="137" y="-864.4" font-family="Times,serif" font-size="14.00" style="font-size:10px; font-family:Verdana">Nikolaus Boda Poda von Neuhaus</text></g><g id="node2" class="node"><polygon fill="lightgrey" stroke="black" points="100.628,-815.602 -0.628011,-815.602 -0.628011,-774.398 100.628,-774.398 100.628,-815.602" style="fill: black; stroke: none; fill-opacity:0.3" transform="translate(3,3)"/><polygon fill="lightgrey" stroke="black" points="100.628,-815.602 -0.628011,-815.602 -0.628011,-774.398 100.628,-774.398 100.628,-815.602" style="fill:url(#lightgrey);stroke:black;"/><text text-anchor="middle" x="50" y="-797.8" font-family="Times,serif" font-size="14.00" style="font-size:10px; font-family:Verdana">Gabriel Gruber</text><text text-anchor="middle" x="50" y="-781" font-family="Times,serif" font-size="14.00" style="font-size:10px; font-family:Verdana">1767</text></g><g id="edge1" class="edge"><polygon fill="black" stroke="black" points="106.596,-848.057 116.506,-851.804 111.095,-842.695 106.596,-848.057" style="fill: black; stroke: none; fill-opacity:0.3" transform="translate(3,3)"/><path fill="none" stroke="black" d="M73.7731,-815.948C84.542,-824.984 97.3572,-835.737 108.626,-845.192" style="fill: none; stroke: black; stroke-opacity:0.3" transform="translate(3,3)"/><polygon fill="black" stroke="black" points="106.596,-848.057 116.506,-851.804 111.095,-842.695 106.596,-848.057" style="fill:url(#black);stroke:black;"/><path fill="none" stroke="black" d="M73.7731,-815.948C84.542,-824.984 97.3572,-835.737 108.626,-845.192"/></g><g id="node3" class="node"><polygon fill="lightgrey" stroke="black" points="331.493,-815.602 118.507,-815.602 118.507,-774.398 331.493,-774.398 331.493,-815.602" style="fill: black; stroke: none; fill-opacity:0.3" transform="translate(3,3)"/><polygon fill="lightgrey" stroke="black" points="331.493,-815.602 118.507,-815.602 118.507,-774.398 331.493,-774.398 331.493,-815.602" style="fill:url(#lightgrey);stroke:black;"/><text text-anchor="middle" x="225" y="-797.8" font-family="Times,serif" font-size="14.00" style="font-size:10px; font-family:Verdana">Joseph Giuseppe Jakob von Maffei</text><text text-anchor="middle" x="225" y="-781" font-family="Times,serif" font-size="14.00" style="font-size:10px; font-family:Verdana">1762</text></g><g id="edge2" class="edge"><polygon fill="black" stroke="black" points="163.191,-842.726 157.729,-851.804 167.661,-848.113 163.191,-842.726" style="fill: black; stroke: none; fill-opacity:0.3" transform="translate(3,3)"/><path fill="none" stroke="black" d="M200.954,-815.948C190.061,-824.984 177.098,-835.737 165.7,-845.192" style="fill: none; stroke: black; stroke-opacity:0.3" transform="translate(3,3)"/><polygon fill="black" stroke="black" points="163.191,-842.726 157.729,-851.804 167.661,-848.113 163.191,-842.726" style="fill:url(#black);stroke:black;"/><path fill="none" stroke="black" d="M200.954,-815.948C190.061,-824.984 177.098,-835.737 165.7,-845.192"/></g><g id="node4" class="node"><polygon fill="lightgrey" stroke="black" points="253.097,-737.602 20.903,-737.602 20.903,-696.398 253.097,-696.398 253.097,-737.602" style="fill: black; stroke: none; fill-opacity:0.3" transform="translate(3,3)"/><polygon fill="lightgrey" stroke="black" points="253.097,-737.602 20.903,-737.602 20.903,-696.398 253.097,-696.398 253.097,-737.602" style="fill:url(#lightgrey);stroke:black;"/><text text-anchor="middle" x="137" y="-719.8" font-family="Times,serif" font-size="14.00" style="font-size:10px; font-family:Verdana">Georg Jurij Bartolomej Veha von Vega</text><text text-anchor="middle" x="137" y="-703" font-family="Times,serif" font-size="14.00" style="font-size:10px; font-family:Verdana">1775</text></g><g id="edge3" class="edge"><polygon fill="black" stroke="black" points="77.9341,-764.95 72.7056,-774.165 82.5393,-770.222 77.9341,-764.95" style="fill: black; stroke: none; fill-opacity:0.3" transform="translate(3,3)"/><path fill="none" stroke="black" d="M114.142,-737.968C103.852,-746.957 91.5556,-757.699 80.4948,-767.361" style="fill: none; stroke: black; stroke-opacity:0.3" transform="translate(3,3)"/><polygon fill="black" stroke="black" points="77.9341,-764.95 72.7056,-774.165 82.5393,-770.222 77.9341,-764.95" style="fill:url(#black);stroke:black;"/><path fill="none" stroke="black" d="M114.142,-737.968C103.852,-746.957 91.5556,-757.699 80.4948,-767.361"/></g><g id="edge4" class="edge"><polygon fill="black" stroke="black" points="192.178,-770.278 202.033,-774.165 196.753,-764.98 192.178,-770.278" style="fill: black; stroke: none; fill-opacity:0.3" transform="translate(3,3)"/><path fill="none" stroke="black" d="M160.121,-737.968C170.529,-746.957 182.967,-757.699 194.155,-767.361" style="fill: none; stroke: black; stroke-opacity:0.3" transform="translate(3,3)"/><polygon fill="black" stroke="black" points="192.178,-770.278 202.033,-774.165 196.753,-764.98 192.178,-770.278" style="fill:url(#black);stroke:black;"/><path fill="none" stroke="black" d="M160.121,-737.968C170.529,-746.957 182.967,-757.699 194.155,-767.361"/></g><g id="node5" class="node"><polygon fill="lightgrey" stroke="black" points="184.407,-660 89.5927,-660 89.5927,-624 184.407,-624 184.407,-660" style="fill: black; stroke: none; fill-opacity:0.3" transform="translate(3,3)"/><polygon fill="lightgrey" stroke="black" points="184.407,-660 89.5927,-660 89.5927,-624 184.407,-624 184.407,-660" style="fill:url(#lightgrey);stroke:black;"/><text text-anchor="middle" x="137" y="-636.4" font-family="Times,serif" font-size="14.00" style="font-size:10px; font-family:Verdana">Ignaz Lindner</text></g><g id="edge5" class="edge"><polygon fill="black" stroke="black" points="133.5,-686.245 137,-696.245 140.5,-686.245 133.5,-686.245" style="fill: black; stroke: none; fill-opacity:0.3" transform="translate(3,3)"/><path fill="none" stroke="black" d="M137,-660.3C137,-667.974 137,-677.23 137,-685.974" style="fill: none; stroke: black; stroke-opacity:0.3" transform="translate(3,3)"/><polygon fill="black" stroke="black" points="133.5,-686.245 137,-696.245 140.5,-686.245 133.5,-686.245" style="fill:url(#black);stroke:black;"/><path fill="none" stroke="black" d="M137,-660.3C137,-667.974 137,-677.23 137,-685.974"/></g><g id="node6" class="node"><polygon fill="lightgrey" stroke="black" points="221.693,-587.602 52.3065,-587.602 52.3065,-546.398 221.693,-546.398 221.693,-587.602" style="fill: black; stroke: none; fill-opacity:0.3" transform="translate(3,3)"/><polygon fill="lightgrey" stroke="black" points="221.693,-587.602 52.3065,-587.602 52.3065,-546.398 221.693,-546.398 221.693,-587.602" style="fill:url(#lightgrey);stroke:black;"/><text text-anchor="middle" x="137" y="-569.8" font-family="Times,serif" font-size="14.00" style="font-size:10px; font-family:Verdana">Andreas von Ettingshausen</text><text text-anchor="middle" x="137" y="-553" font-family="Times,serif" font-size="14.00" style="font-size:10px; font-family:Verdana">1817</text></g><g id="edge6" class="edge"><polygon fill="black" stroke="black" points="133.5,-613.561 137,-623.561 140.5,-613.561 133.5,-613.561" style="fill: black; stroke: none; fill-opacity:0.3" transform="translate(3,3)"/><path fill="none" stroke="black" d="M137,-587.948C137,-595.784 137,-604.911 137,-613.364" style="fill: none; stroke: black; stroke-opacity:0.3" transform="translate(3,3)"/><polygon fill="black" stroke="black" points="133.5,-613.561 137,-623.561 140.5,-613.561 133.5,-613.561" style="fill:url(#black);stroke:black;"/><path fill="none" stroke="black" d="M137,-587.948C137,-595.784 137,-604.911 137,-613.364"/></g><g id="node7" class="node"><polygon fill="lightgrey" stroke="black" points="177.428,-509.602 96.5722,-509.602 96.5722,-468.398 177.428,-468.398 177.428,-509.602" style="fill: black; stroke: none; fill-opacity:0.3" transform="translate(3,3)"/><polygon fill="lightgrey" stroke="black" points="177.428,-509.602 96.5722,-509.602 96.5722,-468.398 177.428,-468.398 177.428,-509.602" style="fill:url(#lightgrey);stroke:black;"/><text text-anchor="middle" x="137" y="-491.8" font-family="Times,serif" font-size="14.00" style="font-size:10px; font-family:Verdana">Ernst Mach</text><text text-anchor="middle" x="137" y="-475" font-family="Times,serif" font-size="14.00" style="font-size:10px; font-family:Verdana">1860</text></g><g id="edge7" class="edge"><polygon fill="black" stroke="black" points="133.5,-536.165 137,-546.165 140.5,-536.165 133.5,-536.165" style="fill: black; stroke: none; fill-opacity:0.3" transform="translate(3,3)"/><path fill="none" stroke="black" d="M137,-509.968C137,-517.91 137,-527.219 137,-535.944" style="fill: none; stroke: black; stroke-opacity:0.3" transform="translate(3,3)"/><polygon fill="black" stroke="black" points="133.5,-536.165 137,-546.165 140.5,-536.165 133.5,-536.165" style="fill:url(#black);stroke:black;"/><path fill="none" stroke="black" d="M137,-509.968C137,-517.91 137,-527.219 137,-535.944"/></g><g id="node8" class="node"><polygon fill="lightgrey" stroke="black" points="197.07,-431.602 76.9299,-431.602 76.9299,-390.398 197.07,-390.398 197.07,-431.602" style="fill: black; stroke: none; fill-opacity:0.3" transform="translate(3,3)"/><polygon fill="lightgrey" stroke="black" points="197.07,-431.602 76.9299,-431.602 76.9299,-390.398 197.07,-390.398 197.07,-431.602" style="fill:url(#lightgrey);stroke:black;"/><text text-anchor="middle" x="137" y="-413.8" font-family="Times,serif" font-size="14.00" style="font-size:10px; font-family:Verdana">Heinrich Gomperz</text><text text-anchor="middle" x="137" y="-397" font-family="Times,serif" font-size="14.00" style="font-size:10px; font-family:Verdana">1896</text></g><g id="edge8" class="edge"><polygon fill="black" stroke="black" points="133.5,-458.165 137,-468.165 140.5,-458.165 133.5,-458.165" style="fill: black; stroke: none; fill-opacity:0.3" transform="translate(3,3)"/><path fill="none" stroke="black" d="M137,-431.968C137,-439.91 137,-449.219 137,-457.944" style="fill: none; stroke: black; stroke-opacity:0.3" transform="translate(3,3)"/><polygon fill="black" stroke="black" points="133.5,-458.165 137,-468.165 140.5,-458.165 133.5,-458.165" style="fill:url(#black);stroke:black;"/><path fill="none" stroke="black" d="M137,-431.968C137,-439.91 137,-449.219 137,-457.944"/></g><g id="node9" class="node"><polygon fill="lightgrey" stroke="black" points="178.745,-353.602 95.2545,-353.602 95.2545,-312.398 178.745,-312.398 178.745,-353.602" style="fill: black; stroke: none; fill-opacity:0.3" transform="translate(3,3)"/><polygon fill="lightgrey" stroke="black" points="178.745,-353.602 95.2545,-353.602 95.2545,-312.398 178.745,-312.398 178.745,-353.602" style="fill:url(#lightgrey);stroke:black;"/><text text-anchor="middle" x="137" y="-335.8" font-family="Times,serif" font-size="14.00" style="font-size:10px; font-family:Verdana">Leo Gabriel</text><text text-anchor="middle" x="137" y="-319" font-family="Times,serif" font-size="14.00" style="font-size:10px; font-family:Verdana">1929</text></g><g id="edge9" class="edge"><polygon fill="black" stroke="black" points="133.5,-380.165 137,-390.165 140.5,-380.165 133.5,-380.165" style="fill: black; stroke: none; fill-opacity:0.3" transform="translate(3,3)"/><path fill="none" stroke="black" d="M137,-353.968C137,-361.91 137,-371.219 137,-379.944" style="fill: none; stroke: black; stroke-opacity:0.3" transform="translate(3,3)"/><polygon fill="black" stroke="black" points="133.5,-380.165 137,-390.165 140.5,-380.165 133.5,-380.165" style="fill:url(#black);stroke:black;"/><path fill="none" stroke="black" d="M137,-353.968C137,-361.91 137,-371.219 137,-379.944"/></g><g id="node10" class="node"><polygon fill="lightgrey" stroke="black" points="301.245,-351 196.755,-351 196.755,-315 301.245,-315 301.245,-351" style="fill: black; stroke: none; fill-opacity:0.3" transform="translate(3,3)"/><polygon fill="lightgrey" stroke="black" points="301.245,-351 196.755,-351 196.755,-315 301.245,-315 301.245,-351" style="fill:url(#lightgrey);stroke:black;"/><text text-anchor="middle" x="249" y="-327.4" font-family="Times,serif" font-size="14.00" style="font-size:10px; font-family:Verdana">Friedrich Kainz</text></g><g id="node11" class="node"><polygon fill="lightgrey" stroke="black" points="240.721,-275.602 145.279,-275.602 145.279,-234.398 240.721,-234.398 240.721,-275.602" style="fill: black; stroke: none; fill-opacity:0.3" transform="translate(3,3)"/><polygon fill="lightgrey" stroke="black" points="240.721,-275.602 145.279,-275.602 145.279,-234.398 240.721,-234.398 240.721,-275.602" style="fill:url(#lightgrey);stroke:black;"/><text text-anchor="middle" x="193" y="-257.8" font-family="Times,serif" font-size="14.00" style="font-size:10px; font-family:Verdana">Curt Christian</text><text text-anchor="middle" x="193" y="-241" font-family="Times,serif" font-size="14.00" style="font-size:10px; font-family:Verdana">1953</text></g><g id="edge10" class="edge"><polygon fill="black" stroke="black" points="154.729,-302.038 151.615,-312.165 160.365,-306.191 154.729,-302.038" style="fill: black; stroke: none; fill-opacity:0.3" transform="translate(3,3)"/><path fill="none" stroke="black" d="M178.287,-275.968C171.985,-284.521 164.514,-294.66 157.671,-303.946" style="fill: none; stroke: black; stroke-opacity:0.3" transform="translate(3,3)"/><polygon fill="black" stroke="black" points="154.729,-302.038 151.615,-312.165 160.365,-306.191 154.729,-302.038" style="fill:url(#black);stroke:black;"/><path fill="none" stroke="black" d="M178.287,-275.968C171.985,-284.521 164.514,-294.66 157.671,-303.946"/></g><g id="edge11" class="edge"><polygon fill="black" stroke="black" points="227.722,-309.023 236.472,-314.997 233.357,-304.871 227.722,-309.023" style="fill: black; stroke: none; fill-opacity:0.3" transform="translate(3,3)"/><path fill="none" stroke="black" d="M207.713,-275.968C214.701,-285.451 223.126,-296.885 230.538,-306.944" style="fill: none; stroke: black; stroke-opacity:0.3" transform="translate(3,3)"/><polygon fill="black" stroke="black" points="227.722,-309.023 236.472,-314.997 233.357,-304.871 227.722,-309.023" style="fill:url(#black);stroke:black;"/><path fill="none" stroke="black" d="M207.713,-275.968C214.701,-285.451 223.126,-296.885 230.538,-306.944"/></g><g id="node12" class="node"><polygon fill="lightgrey" stroke="black" points="241.52,-197.602 144.48,-197.602 144.48,-156.398 241.52,-156.398 241.52,-197.602" style="fill: black; stroke: none; fill-opacity:0.3" transform="translate(3,3)"/><polygon fill="lightgrey" stroke="black" points="241.52,-197.602 144.48,-197.602 144.48,-156.398 241.52,-156.398 241.52,-197.602" style="fill:url(#lightgrey);stroke:black;"/><text text-anchor="middle" x="193" y="-179.8" font-family="Times,serif" font-size="14.00" style="font-size:10px; font-family:Verdana">Georg Gottlob</text><text text-anchor="middle" x="193" y="-163" font-family="Times,serif" font-size="14.00" style="font-size:10px; font-family:Verdana">1981</text></g><g id="edge12" class="edge"><polygon fill="black" stroke="black" points="189.5,-224.165 193,-234.165 196.5,-224.165 189.5,-224.165" style="fill: black; stroke: none; fill-opacity:0.3" transform="translate(3,3)"/><path fill="none" stroke="black" d="M193,-197.968C193,-205.91 193,-215.219 193,-223.944" style="fill: none; stroke: black; stroke-opacity:0.3" transform="translate(3,3)"/><polygon fill="black" stroke="black" points="189.5,-224.165 193,-234.165 196.5,-224.165 189.5,-224.165" style="fill:url(#black);stroke:black;"/><path fill="none" stroke="black" d="M193,-197.968C193,-205.91 193,-215.219 193,-223.944"/></g><g id="node13" class="node"><polygon fill="lightgrey" stroke="black" points="238.811,-119.602 147.189,-119.602 147.189,-78.3981 238.811,-78.3981 238.811,-119.602" style="fill: black; stroke: none; fill-opacity:0.3" transform="translate(3,3)"/><polygon fill="lightgrey" stroke="black" points="238.811,-119.602 147.189,-119.602 147.189,-78.3981 238.811,-78.3981 238.811,-119.602" style="fill:url(#lightgrey);stroke:black;"/><text text-anchor="middle" x="193" y="-101.8" font-family="Times,serif" font-size="14.00" style="font-size:10px; font-family:Verdana">Thomas Eiter</text><text text-anchor="middle" x="193" y="-85" font-family="Times,serif" font-size="14.00" style="font-size:10px; font-family:Verdana">1991</text></g><g id="edge13" class="edge"><polygon fill="black" stroke="black" points="189.5,-146.165 193,-156.165 196.5,-146.165 189.5,-146.165" style="fill: black; stroke: none; fill-opacity:0.3" transform="translate(3,3)"/><path fill="none" stroke="black" d="M193,-119.968C193,-127.91 193,-137.219 193,-145.944" style="fill: none; stroke: black; stroke-opacity:0.3" transform="translate(3,3)"/><polygon fill="black" stroke="black" points="189.5,-146.165 193,-156.165 196.5,-146.165 189.5,-146.165" style="fill:url(#black);stroke:black;"/><path fill="none" stroke="black" d="M193,-119.968C193,-127.91 193,-137.219 193,-145.944"/></g><g id="node14" class="node"><polygon fill="lightgrey" stroke="black" points="237.214,-41.6019 148.786,-41.6019 148.786,-0.398095 237.214,-0.398095 237.214,-41.6019" style="fill: black; stroke: none; fill-opacity:0.3" transform="translate(3,3)"/><polygon fill="lightgrey" stroke="black" points="237.214,-41.6019 148.786,-41.6019 148.786,-0.398095 237.214,-0.398095 237.214,-41.6019" style="fill:url(#lightgrey);stroke:black;"/><text text-anchor="middle" x="193" y="-23.8" font-family="Times,serif" font-size="14.00" style="font-size:10px; font-family:Verdana">Guohui Xiao</text><text text-anchor="middle" x="193" y="-7" font-family="Times,serif" font-size="14.00" style="font-size:10px; font-family:Verdana">2014</text></g><g id="edge14" class="edge"><polygon fill="black" stroke="black" points="189.5,-68.1652 193,-78.1653 196.5,-68.1653 189.5,-68.1652" style="fill: black; stroke: none; fill-opacity:0.3" transform="translate(3,3)"/><path fill="none" stroke="black" d="M193,-41.9681C193,-49.9098 193,-59.2195 193,-67.9443" style="fill: none; stroke: black; stroke-opacity:0.3" transform="translate(3,3)"/><polygon fill="black" stroke="black" points="189.5,-68.1652 193,-78.1653 196.5,-68.1653 189.5,-68.1652" style="fill:url(#black);stroke:black;"/><path fill="none" stroke="black" d="M193,-41.9681C193,-49.9098 193,-59.2195 193,-67.9443"/></g></g>
</svg>
